<mxfile host="app.diagrams.net" modified="2023-03-29T07:20:08.448Z" agent="Mozilla/5.0 (Macintosh; Intel Mac OS X 10_15_7) AppleWebKit/537.36 (KHTML, like Gecko) Chrome/111.0.0.0 Safari/537.36" etag="MDL2jeB1FlJAnMe05kUc" version="21.1.1" type="device">
  <diagram name="Page-1" id="kkiTmm37caA5Y-Y5O5JG">
    <mxGraphModel dx="1834" dy="1086" grid="0" gridSize="10" guides="1" tooltips="1" connect="1" arrows="1" fold="1" page="0" pageScale="1" pageWidth="850" pageHeight="1100" math="0" shadow="0">
      <root>
        <mxCell id="0" />
        <mxCell id="1" parent="0" />
        <mxCell id="w9qf3Mh3zmGoKcAIoN_C-13" style="edgeStyle=orthogonalEdgeStyle;rounded=0;orthogonalLoop=1;jettySize=auto;html=1;exitX=0.5;exitY=0.5;exitDx=0;exitDy=0;exitPerimeter=0;entryX=0;entryY=0.5;entryDx=0;entryDy=0;" edge="1" parent="1" source="hTJ4_9kS3_AQh2260v77-1" target="hTJ4_9kS3_AQh2260v77-9">
          <mxGeometry relative="1" as="geometry" />
        </mxCell>
        <mxCell id="hTJ4_9kS3_AQh2260v77-1" value="Passenger&lt;br&gt;" style="shape=umlActor;verticalLabelPosition=bottom;verticalAlign=top;html=1;outlineConnect=0;" parent="1" vertex="1">
          <mxGeometry x="-138" y="93" width="30" height="60" as="geometry" />
        </mxCell>
        <mxCell id="w9qf3Mh3zmGoKcAIoN_C-9" style="edgeStyle=orthogonalEdgeStyle;rounded=0;orthogonalLoop=1;jettySize=auto;html=1;exitX=0.5;exitY=0.5;exitDx=0;exitDy=0;exitPerimeter=0;entryX=0;entryY=0.5;entryDx=0;entryDy=0;" edge="1" parent="1" source="hTJ4_9kS3_AQh2260v77-4" target="w9qf3Mh3zmGoKcAIoN_C-2">
          <mxGeometry relative="1" as="geometry" />
        </mxCell>
        <mxCell id="hTJ4_9kS3_AQh2260v77-4" value="Employee" style="shape=umlActor;verticalLabelPosition=bottom;verticalAlign=top;html=1;outlineConnect=0;" parent="1" vertex="1">
          <mxGeometry x="-143" y="356" width="30" height="60" as="geometry" />
        </mxCell>
        <mxCell id="w9qf3Mh3zmGoKcAIoN_C-21" style="edgeStyle=orthogonalEdgeStyle;rounded=0;orthogonalLoop=1;jettySize=auto;html=1;exitX=1;exitY=0.5;exitDx=0;exitDy=0;" edge="1" parent="1" source="hTJ4_9kS3_AQh2260v77-9">
          <mxGeometry relative="1" as="geometry">
            <mxPoint x="45" y="124" as="targetPoint" />
          </mxGeometry>
        </mxCell>
        <mxCell id="hTJ4_9kS3_AQh2260v77-9" value="Check-In" style="ellipse;whiteSpace=wrap;html=1;" parent="1" vertex="1">
          <mxGeometry x="-69" y="94" width="97" height="59" as="geometry" />
        </mxCell>
        <mxCell id="w9qf3Mh3zmGoKcAIoN_C-17" style="edgeStyle=orthogonalEdgeStyle;rounded=0;orthogonalLoop=1;jettySize=auto;html=1;exitX=1;exitY=0.5;exitDx=0;exitDy=0;" edge="1" parent="1" source="hTJ4_9kS3_AQh2260v77-10">
          <mxGeometry relative="1" as="geometry">
            <mxPoint x="164" y="121" as="targetPoint" />
          </mxGeometry>
        </mxCell>
        <mxCell id="hTJ4_9kS3_AQh2260v77-10" value="Security check" style="ellipse;whiteSpace=wrap;html=1;" parent="1" vertex="1">
          <mxGeometry x="46" y="88" width="95" height="65" as="geometry" />
        </mxCell>
        <mxCell id="w9qf3Mh3zmGoKcAIoN_C-19" style="edgeStyle=orthogonalEdgeStyle;rounded=0;orthogonalLoop=1;jettySize=auto;html=1;exitX=1;exitY=0.5;exitDx=0;exitDy=0;" edge="1" parent="1" source="hTJ4_9kS3_AQh2260v77-11">
          <mxGeometry relative="1" as="geometry">
            <mxPoint x="293" y="121" as="targetPoint" />
          </mxGeometry>
        </mxCell>
        <mxCell id="hTJ4_9kS3_AQh2260v77-11" value="Immigration control for Identity" style="ellipse;whiteSpace=wrap;html=1;" parent="1" vertex="1">
          <mxGeometry x="166" y="88" width="95" height="65" as="geometry" />
        </mxCell>
        <mxCell id="w9qf3Mh3zmGoKcAIoN_C-20" style="edgeStyle=orthogonalEdgeStyle;rounded=0;orthogonalLoop=1;jettySize=auto;html=1;exitX=1;exitY=0.5;exitDx=0;exitDy=0;" edge="1" parent="1" source="hTJ4_9kS3_AQh2260v77-12">
          <mxGeometry relative="1" as="geometry">
            <mxPoint x="414" y="119" as="targetPoint" />
          </mxGeometry>
        </mxCell>
        <mxCell id="hTJ4_9kS3_AQh2260v77-12" value="Board plane" style="ellipse;whiteSpace=wrap;html=1;" parent="1" vertex="1">
          <mxGeometry x="295" y="86" width="95" height="65" as="geometry" />
        </mxCell>
        <mxCell id="w9qf3Mh3zmGoKcAIoN_C-1" value="Fly" style="ellipse;whiteSpace=wrap;html=1;" vertex="1" parent="1">
          <mxGeometry x="416" y="86" width="95" height="65" as="geometry" />
        </mxCell>
        <mxCell id="w9qf3Mh3zmGoKcAIoN_C-23" style="edgeStyle=orthogonalEdgeStyle;rounded=0;orthogonalLoop=1;jettySize=auto;html=1;exitX=1;exitY=0.5;exitDx=0;exitDy=0;entryX=0;entryY=0.5;entryDx=0;entryDy=0;" edge="1" parent="1" source="w9qf3Mh3zmGoKcAIoN_C-2" target="w9qf3Mh3zmGoKcAIoN_C-4">
          <mxGeometry relative="1" as="geometry" />
        </mxCell>
        <mxCell id="w9qf3Mh3zmGoKcAIoN_C-24" style="edgeStyle=orthogonalEdgeStyle;rounded=0;orthogonalLoop=1;jettySize=auto;html=1;exitX=1;exitY=0.5;exitDx=0;exitDy=0;" edge="1" parent="1" source="w9qf3Mh3zmGoKcAIoN_C-2" target="w9qf3Mh3zmGoKcAIoN_C-5">
          <mxGeometry relative="1" as="geometry" />
        </mxCell>
        <mxCell id="w9qf3Mh3zmGoKcAIoN_C-26" style="edgeStyle=orthogonalEdgeStyle;rounded=0;orthogonalLoop=1;jettySize=auto;html=1;exitX=1;exitY=0.5;exitDx=0;exitDy=0;entryX=0;entryY=0.5;entryDx=0;entryDy=0;" edge="1" parent="1" source="w9qf3Mh3zmGoKcAIoN_C-2" target="w9qf3Mh3zmGoKcAIoN_C-3">
          <mxGeometry relative="1" as="geometry" />
        </mxCell>
        <mxCell id="w9qf3Mh3zmGoKcAIoN_C-27" style="edgeStyle=orthogonalEdgeStyle;rounded=0;orthogonalLoop=1;jettySize=auto;html=1;exitX=1;exitY=0.5;exitDx=0;exitDy=0;entryX=0;entryY=0.5;entryDx=0;entryDy=0;" edge="1" parent="1" source="w9qf3Mh3zmGoKcAIoN_C-2" target="w9qf3Mh3zmGoKcAIoN_C-8">
          <mxGeometry relative="1" as="geometry" />
        </mxCell>
        <mxCell id="w9qf3Mh3zmGoKcAIoN_C-2" value="authenticate&amp;nbsp;" style="ellipse;whiteSpace=wrap;html=1;" vertex="1" parent="1">
          <mxGeometry x="83" y="357" width="97" height="59" as="geometry" />
        </mxCell>
        <mxCell id="w9qf3Mh3zmGoKcAIoN_C-29" style="edgeStyle=orthogonalEdgeStyle;rounded=0;orthogonalLoop=1;jettySize=auto;html=1;exitX=1;exitY=0.5;exitDx=0;exitDy=0;" edge="1" parent="1" source="w9qf3Mh3zmGoKcAIoN_C-3">
          <mxGeometry relative="1" as="geometry">
            <mxPoint x="387" y="518" as="targetPoint" />
          </mxGeometry>
        </mxCell>
        <mxCell id="w9qf3Mh3zmGoKcAIoN_C-3" value="Access to restricted areas&amp;nbsp;" style="ellipse;whiteSpace=wrap;html=1;" vertex="1" parent="1">
          <mxGeometry x="258" y="487" width="97" height="61" as="geometry" />
        </mxCell>
        <mxCell id="w9qf3Mh3zmGoKcAIoN_C-4" value="Help Customer check-in" style="ellipse;whiteSpace=wrap;html=1;" vertex="1" parent="1">
          <mxGeometry x="258" y="297" width="97" height="59" as="geometry" />
        </mxCell>
        <mxCell id="w9qf3Mh3zmGoKcAIoN_C-31" style="edgeStyle=orthogonalEdgeStyle;rounded=0;orthogonalLoop=1;jettySize=auto;html=1;exitX=1;exitY=0.5;exitDx=0;exitDy=0;" edge="1" parent="1" source="w9qf3Mh3zmGoKcAIoN_C-5">
          <mxGeometry relative="1" as="geometry">
            <mxPoint x="381" y="428" as="targetPoint" />
          </mxGeometry>
        </mxCell>
        <mxCell id="w9qf3Mh3zmGoKcAIoN_C-5" value="Perform security checks" style="ellipse;whiteSpace=wrap;html=1;" vertex="1" parent="1">
          <mxGeometry x="256" y="399" width="106" height="57" as="geometry" />
        </mxCell>
        <mxCell id="w9qf3Mh3zmGoKcAIoN_C-6" value="Perform Identity check" style="ellipse;whiteSpace=wrap;html=1;" vertex="1" parent="1">
          <mxGeometry x="384" y="399" width="106" height="59" as="geometry" />
        </mxCell>
        <mxCell id="w9qf3Mh3zmGoKcAIoN_C-7" value="Secure the airport areas" style="ellipse;whiteSpace=wrap;html=1;" vertex="1" parent="1">
          <mxGeometry x="390" y="489" width="97" height="59" as="geometry" />
        </mxCell>
        <mxCell id="w9qf3Mh3zmGoKcAIoN_C-8" value="Coordinate the planes for landing and takeoff" style="ellipse;whiteSpace=wrap;html=1;" vertex="1" parent="1">
          <mxGeometry x="258" y="583" width="97" height="59" as="geometry" />
        </mxCell>
        <mxCell id="w9qf3Mh3zmGoKcAIoN_C-10" value="" style="endArrow=none;dashed=1;html=1;rounded=0;" edge="1" parent="1">
          <mxGeometry width="50" height="50" relative="1" as="geometry">
            <mxPoint x="43" y="201" as="sourcePoint" />
            <mxPoint x="43" y="33" as="targetPoint" />
          </mxGeometry>
        </mxCell>
        <mxCell id="w9qf3Mh3zmGoKcAIoN_C-12" value="" style="endArrow=none;dashed=1;html=1;dashPattern=1 3;strokeWidth=2;rounded=0;strokeColor=#FF0000;" edge="1" parent="1">
          <mxGeometry width="50" height="50" relative="1" as="geometry">
            <mxPoint x="191" y="618" as="sourcePoint" />
            <mxPoint x="191" y="208" as="targetPoint" />
          </mxGeometry>
        </mxCell>
        <mxCell id="w9qf3Mh3zmGoKcAIoN_C-32" value="" style="endArrow=none;dashed=1;html=1;rounded=0;" edge="1" parent="1">
          <mxGeometry width="50" height="50" relative="1" as="geometry">
            <mxPoint x="595" y="9" as="sourcePoint" />
            <mxPoint x="572" y="9" as="targetPoint" />
          </mxGeometry>
        </mxCell>
        <mxCell id="w9qf3Mh3zmGoKcAIoN_C-33" value="Trusted Boundary&amp;nbsp; Passenger" style="text;html=1;align=center;verticalAlign=middle;resizable=0;points=[];autosize=1;strokeColor=none;fillColor=none;" vertex="1" parent="1">
          <mxGeometry x="601" y="-5" width="177" height="26" as="geometry" />
        </mxCell>
        <mxCell id="w9qf3Mh3zmGoKcAIoN_C-34" value="" style="endArrow=none;dashed=1;html=1;rounded=0;strokeColor=#FF0000;" edge="1" parent="1">
          <mxGeometry width="50" height="50" relative="1" as="geometry">
            <mxPoint x="595" y="35" as="sourcePoint" />
            <mxPoint x="572" y="35" as="targetPoint" />
          </mxGeometry>
        </mxCell>
        <mxCell id="w9qf3Mh3zmGoKcAIoN_C-35" value="Trusted Boundary&amp;nbsp; Employee" style="text;html=1;align=center;verticalAlign=middle;resizable=0;points=[];autosize=1;strokeColor=none;fillColor=none;" vertex="1" parent="1">
          <mxGeometry x="603" y="21" width="173" height="26" as="geometry" />
        </mxCell>
      </root>
    </mxGraphModel>
  </diagram>
</mxfile>
